HIERARCHY
ROOT Hips
{
  OFFSET -43.3411 73.6987 0
  CHANNELS 6 Xposition Yposition Zposition Zrotation Xrotation Yrotation
  JOINT Bip01_Pelvis
  {
    OFFSET 0 0 0
    CHANNELS 6 Xposition Yposition Zposition Zrotation Xrotation Yrotation
    JOINT BN_Tail_01
    {
      OFFSET -18.6385 -9.591 -2.032e-005
      CHANNELS 6 Xposition Yposition Zposition Zrotation Xrotation Yrotation
      JOINT BN_Tail_02
      {
        OFFSET 20.9743 0 0
        CHANNELS 6 Xposition Yposition Zposition Zrotation Xrotation Yrotation
        JOINT BN_Tail_03
        {
          OFFSET 20.3015 0 0
          CHANNELS 6 Xposition Yposition Zposition Zrotation Xrotation Yrotation
          JOINT BN_Tail_04
          {
            OFFSET 21.6394 -9.91821e-005 0
            CHANNELS 6 Xposition Yposition Zposition Zrotation Xrotation Yrotation
            End Site
            {
              OFFSET 0 0 0
            }
          }
        }
      }
    }
    JOINT Bip01_Spine
    {
      OFFSET 22.1878 -0.659386 3.048e-005
      CHANNELS 6 Xposition Yposition Zposition Zrotation Xrotation Yrotation
      JOINT Bip01_R_Thigh
      {
        OFFSET -22.1873 0.677109 -17.1024
        CHANNELS 6 Xposition Yposition Zposition Zrotation Xrotation Yrotation
        JOINT Bip01_R_Calf
        {
          OFFSET 34.2647 0 0
          CHANNELS 6 Xposition Yposition Zposition Zrotation Xrotation Yrotation
          JOINT Bip01_R_HorseLink
          {
            OFFSET 20.4429 0 0
            CHANNELS 6 Xposition Yposition Zposition Zrotation Xrotation Yrotation
            JOINT Bip01_R_Foot
            {
              OFFSET 16.5673 0 0
              CHANNELS 6 Xposition Yposition Zposition Zrotation Xrotation Yrotation
              JOINT Bip01_R_Toe0
              {
                OFFSET 9.18784 6.94841 0
                CHANNELS 6 Xposition Yposition Zposition Zrotation Xrotation Yrotation
                JOINT Bip01_R_Toe0Nub
                {
                  OFFSET 1.01907 0 0
                  CHANNELS 6 Xposition Yposition Zposition Zrotation Xrotation Yrotation
                  End Site
                  {
                    OFFSET 0 0 0
                  }
                }
              }
            }
          }
        }
      }
      JOINT Bip01_L_Thigh
      {
        OFFSET -22.1873 0.67701 17.1024
        CHANNELS 6 Xposition Yposition Zposition Zrotation Xrotation Yrotation
        JOINT Bip01_L_Calf
        {
          OFFSET 34.2647 0 0
          CHANNELS 6 Xposition Yposition Zposition Zrotation Xrotation Yrotation
          JOINT Bip01_L_HorseLink
          {
            OFFSET 20.4429 0 0
            CHANNELS 6 Xposition Yposition Zposition Zrotation Xrotation Yrotation
            JOINT Bip01_L_Foot
            {
              OFFSET 16.5673 0 0
              CHANNELS 6 Xposition Yposition Zposition Zrotation Xrotation Yrotation
              JOINT Bip01_L_Toe0
              {
                OFFSET 9.18784 6.9484 1.14441e-005
                CHANNELS 6 Xposition Yposition Zposition Zrotation Xrotation Yrotation
                JOINT Bip01_L_Toe0Nub
                {
                  OFFSET 1.01907 0 0
                  CHANNELS 6 Xposition Yposition Zposition Zrotation Xrotation Yrotation
                  End Site
                  {
                    OFFSET 0 0 0
                  }
                }
              }
            }
          }
        }
      }
      JOINT Bip01_Spine1
      {
        OFFSET 39.3372 -0.0249863 0
        CHANNELS 6 Xposition Yposition Zposition Zrotation Xrotation Yrotation
        JOINT Bip01_Neck
        {
          OFFSET 34.2837 -15.5934 -4.318e-005
          CHANNELS 6 Xposition Yposition Zposition Zrotation Xrotation Yrotation
          JOINT Bip01_R_Clavicle
          {
            OFFSET -17.9452 -11.3131 -6.19287
            CHANNELS 6 Xposition Yposition Zposition Zrotation Xrotation Yrotation
            JOINT Bip01_R_UpperArm
            {
              OFFSET 17.4439 1.52588e-005 -2.28882e-005
              CHANNELS 6 Xposition Yposition Zposition Zrotation Xrotation Yrotation
              JOINT Bip01_R_Forearm
              {
                OFFSET 30.6251 1.14441e-005 0
                CHANNELS 6 Xposition Yposition Zposition Zrotation Xrotation Yrotation
                JOINT Bip01_R_Hand
                {
                  OFFSET 31.2039 0 0
                  CHANNELS 6 Xposition Yposition Zposition Zrotation Xrotation Yrotation
                  JOINT Bip01_R_Finger0
                  {
                    OFFSET 22.1039 0.255862 -0.37902
                    CHANNELS 6 Xposition Yposition Zposition Zrotation Xrotation Yrotation
                    JOINT Bip01_R_Finger0Nub
                    {
                      OFFSET 12.0552 0 0
                      CHANNELS 6 Xposition Yposition Zposition Zrotation Xrotation Yrotation
                      End Site
                      {
                        OFFSET 0 0 0
                      }
                    }
                  }
                }
              }
            }
          }
          JOINT Bip01_L_Clavicle
          {
            OFFSET -17.9452 -11.3132 6.19281
            CHANNELS 6 Xposition Yposition Zposition Zrotation Xrotation Yrotation
            JOINT Bip01_L_UpperArm
            {
              OFFSET 17.444 0 1.14441e-005
              CHANNELS 6 Xposition Yposition Zposition Zrotation Xrotation Yrotation
              JOINT Bip01_L_Forearm
              {
                OFFSET 30.6251 0 0
                CHANNELS 6 Xposition Yposition Zposition Zrotation Xrotation Yrotation
                JOINT Bip01_L_Hand
                {
                  OFFSET 31.204 0 0
                  CHANNELS 6 Xposition Yposition Zposition Zrotation Xrotation Yrotation
                  JOINT Bip01_L_Finger0
                  {
                    OFFSET 22.1039 0.255856 0.379024
                    CHANNELS 6 Xposition Yposition Zposition Zrotation Xrotation Yrotation
                    JOINT Bip01_L_Finger0Nub
                    {
                      OFFSET 12.0552 0 0
                      CHANNELS 6 Xposition Yposition Zposition Zrotation Xrotation Yrotation
                      End Site
                      {
                        OFFSET 0 0 0
                      }
                    }
                  }
                }
              }
            }
          }
          JOINT Bip01_Neck1
          {
            OFFSET 14.9359 -0.0106278 0
            CHANNELS 6 Xposition Yposition Zposition Zrotation Xrotation Yrotation
            JOINT Bip01_Head
            {
              OFFSET 14.3578 0.505501 0
              CHANNELS 6 Xposition Yposition Zposition Zrotation Xrotation Yrotation
              JOINT BN_Ear_L_01
              {
                OFFSET 3.76994 -2.35629 12.3444
                CHANNELS 6 Xposition Yposition Zposition Zrotation Xrotation Yrotation
                End Site
                {
                  OFFSET 0 0 0
                }
              }
              JOINT BN_Ear_R_01
              {
                OFFSET 3.76995 -2.35622 -12.3442
                CHANNELS 6 Xposition Yposition Zposition Zrotation Xrotation Yrotation
                End Site
                {
                  OFFSET 0 0 0
                }
              }
              JOINT BN_Mouth_01
              {
                OFFSET 11.8395 10.8645 1.27e-005
                CHANNELS 6 Xposition Yposition Zposition Zrotation Xrotation Yrotation
                JOINT BN_Tongue_01
                {
                  OFFSET 9.73752 3.21674 1.016e-005
                  CHANNELS 6 Xposition Yposition Zposition Zrotation Xrotation Yrotation
                  JOINT BN_Tongue_02
                  {
                    OFFSET 9.04304 0.053505 0
                    CHANNELS 6 Xposition Yposition Zposition Zrotation Xrotation Yrotation
                    End Site
                    {
                      OFFSET 0 0 0
                    }
                  }
                }
                JOINT BN_Beard_01
                {
                  OFFSET 6.93466 -0.751793 0
                  CHANNELS 6 Xposition Yposition Zposition Zrotation Xrotation Yrotation
                  JOINT BN_Beard_02
                  {
                    OFFSET 13.0965 1.52588e-005 0
                    CHANNELS 6 Xposition Yposition Zposition Zrotation Xrotation Yrotation
                    End Site
                    {
                      OFFSET 0 0 0
                    }
                  }
                }
              }
              JOINT Bip01_HeadNub
              {
                OFFSET 25.6158 0 0
                CHANNELS 6 Xposition Yposition Zposition Zrotation Xrotation Yrotation
                End Site
                {
                  OFFSET 0 0 0
                }
              }
            }
          }
        }
      }
    }
  }
}
MOTION
Frames:	4
Frame Time:	0.0333333
-42.8862 73.6048 -3.93552 90.0001 -84.7926 -178.872 -7.62939e-006 0 7.10543e-015 -87.2287 8.1563 -81.2266 -18.6385 -9.591 -1.23016e-007 -54.4013 4.25795 173.362 20.9743 -7.6294e-006 -0.000677347 15.8477 0.513707 -5.19168 20.3015 1.52588e-005 -9.53675e-007 -4.84554 -5.19063 37.0913 21.6394 1.52588e-005 -1.90735e-006 8.72423 -0.490371 31.2145 21.7936 2.4958 3.39587 8.50238 -5.81105 -2.2874 -22.7174 2.82527 -19.4258 -97.3509 -3.97818 178.791 34.2647 3.8147e-006 0.000518799 -54.8777 5.98794e-006 8.25213e-006 20.4429 -2.13163e-014 3.8147e-006 63.4439 -5.80102e-007 1.01934e-006 16.5673 -3.8147e-006 -3.8147e-006 -11.5971 10.5472 1.83643 9.18782 6.94844 -1.92477e-006 89.5774 1.50133 -0.0661793 1.01907 8.88178e-015 -3.8147e-006 8.41974e-008 4.77512e-009 7.87619e-007 -21.3597 -0.636363 14.5764 -101.883 16.6834 -176.988 34.2647 1.42109e-014 -1.90735e-006 -45.4008 5.02256e-006 7.66225e-006 20.4429 0 -1.90735e-006 59.9069 1.31751e-005 -5.13041e-006 16.5673 7.6294e-006 3.8147e-006 -20.2509 0.413791 3.0222 9.18784 6.94841 5.71195e-006 89.5168 -1.72894 0.0743159 1.01906 3.13083e-014 1.90735e-006 -179.96 -5.69559e-005 7.17942e-005 39.3331 -0.0246429 0.000213325 -5.50448 1.69121 4.32513 34.2801 -15.593 -4.04966e-005 -15.0966 -12.4704 9.21571 -11.8891 -14.5568 -11.62 -146.085 -56.4293 120.142 17.444 7.6294e-006 7.10543e-015 20.5386 43.0021 -55.496 30.6251 4.76838e-007 -5.72204e-006 -42.0289 7.63074e-007 1.55253e-005 31.2039 1.90735e-006 3.8147e-006 -166.818 79.1259 164.869 22.1039 0.255847 -0.379047 -7.3691 14.8319 -24.8163 12.0552 -1.90735e-006 -5.72204e-006 179.96 -9.82577e-007 -2.55426e-005 -13.8261 -17.2321 0.317195 -170.7 24.8798 -94.8801 17.4439 -1.42109e-014 -7.62939e-006 60.5922 -63.0198 117.763 30.6251 3.8147e-006 3.19744e-014 -15.694 -1.64525e-005 -4.54807e-006 31.204 7.62941e-006 1.90735e-006 -141.783 -84.5295 -135.301 22.1039 0.255847 0.379035 -10.4086 -4.39689 34.6297 12.0552 -3.81471e-006 -2.13162e-014 1.22007e-007 1.02917e-005 -8.76957e-007 14.9375 -0.0103912 -0.000142336 12.7499 -4.87162 8.10747 14.3578 0.505501 -2.08307e-010 14.9848 -6.27474 17.5497 3.76995 -2.35629 12.3444 -168.928 25.1973 -62.7652 3.76996 -2.35622 -12.3442 2.89527 22.7072 97.5017 11.8395 10.8646 9.01233e-007 -177.816 -1.23553 -178.238 9.73752 3.21677 2.84844e-007 -2.85749 -1.43887e-006 1.01983e-005 5.17481 0.535218 -0.1598 -9.7303 -2.94073e-006 3.49488e-006 6.93465 -0.751778 8.87105e-007 -70.9875 -40.8397 28.8167 13.0965 0 -2.38419e-007 -7.89266 -1.6355 -12.1212 25.6158 1.52588e-005 1.69287e-012 -6.60127e-008 2.49605e-008 2.39507e-008 
-42.9562 73.6078 -3.91789 90.0001 -84.8113 -178.865 -7.62939e-006 0 -7.10543e-015 -87.1659 8.1788 -81.2996 -18.6385 -9.591 -1.23097e-007 -54.9929 4.81455 167.679 20.9743 -7.6294e-006 -0.000677347 17.5437 0.328657 -11.7892 20.3015 1.52588e-005 -9.53675e-007 -9.36777 -5.36564 35.039 21.6394 1.52588e-005 -1.90735e-006 -2.70594 -2.51063 30.8412 21.7969 2.50512 3.36873 8.51144 -5.85882 -2.20063 -22.6919 2.83547 -19.4299 -97.4185 -3.96875 178.801 34.2647 3.8147e-006 0.000518799 -54.9736 5.97714e-006 8.26127e-006 20.4429 -4.26326e-014 3.8147e-006 63.5218 -5.80195e-007 1.02323e-006 16.5673 -3.8147e-006 -3.8147e-006 -11.647 10.5258 1.82132 9.18782 6.94844 -1.92479e-006 89.5774 1.50133 -0.0661793 1.01907 7.28306e-014 -3.8147e-006 8.41974e-008 4.77512e-009 7.87619e-007 -21.3839 -0.656849 14.5713 -101.972 16.6994 -176.976 34.2647 2.4869e-014 -1.90735e-006 -45.3685 5.03384e-006 7.6528e-006 20.4429 0 -1.90735e-006 59.7757 4.96416e-006 -9.88772e-006 16.5673 7.6294e-006 3.8147e-006 -20.2439 0.393503 3.02821 9.18784 6.94841 5.71185e-006 89.5168 -1.72894 0.0743159 1.01906 7.32748e-015 1.90735e-006 -179.96 -5.69559e-005 7.17942e-005 39.3331 -0.0246429 0.000213325 -5.42376 1.83094 4.39468 34.2801 -15.593 -4.04957e-005 -15.1171 -12.3804 9.34265 -11.8604 -14.5758 -11.6232 -145.989 -56.3032 120.256 17.444 7.6294e-006 0 20.5939 42.9432 -55.4127 30.6251 4.76838e-007 -5.72204e-006 -42.3164 6.78908e-007 1.55317e-005 31.2039 1.90735e-006 3.8147e-006 -166.099 79.1513 164.325 22.1039 0.255847 -0.379047 -7.43025 14.7692 -24.8992 12.0552 -1.90735e-006 -5.72204e-006 179.96 -9.82573e-007 -2.55426e-005 -13.8246 -17.2318 0.313834 -170.744 24.9546 -94.7808 17.4439 -5.68435e-014 -7.62939e-006 61.1064 -63.1868 118.301 30.6251 3.8147e-006 1.06581e-014 -15.3503 -1.90611e-005 4.94912e-006 31.204 7.62941e-006 1.90735e-006 -142.867 -84.6201 -136.237 22.1039 0.255847 0.379035 -10.4085 -4.3973 34.6277 12.0552 -3.81471e-006 2.13162e-014 1.22007e-007 1.02917e-005 -8.76957e-007 14.9375 -0.0103912 -0.000142336 12.7486 -4.87317 8.01312 14.3578 0.505501 -3.4997e-010 14.8131 -6.5675 17.2644 3.76995 -2.35629 12.3444 -169.012 25.8966 -61.4591 3.76996 -2.35622 -12.3442 2.91646 22.6389 96.9366 11.8395 10.8646 8.78333e-007 -176.069 -2.57802 -177.643 9.73752 3.21677 2.99245e-007 -2.85749 -1.40812e-006 1.02112e-005 5.17481 0.535218 -0.1598 -9.7303 -3.95071e-006 1.10151e-005 6.93465 -0.751778 8.8374e-007 -70.59 -40.5378 26.8365 13.0965 0 -2.38419e-007 -7.89266 -1.6355 -12.1212 25.6158 1.52588e-005 1.64313e-012 -6.60127e-008 2.49605e-008 2.39507e-008 
-43.0215 73.6099 -3.90015 90 -84.8295 -178.86 -7.62939e-006 0 0 -87.1052 8.19943 -81.3715 -18.6385 -9.591 -1.2318e-007 -55.575 5.30274 162.142 20.9743 -7.62941e-006 -0.000677347 19.3393 -0.0737915 -18.2112 20.3015 1.52588e-005 -9.53675e-007 -12.5598 -5.59192 31.7152 21.6394 1.52588e-005 -1.90735e-006 -11.4358 -3.98577 30.3144 21.8001 2.51306 3.34178 8.52402 -5.88577 -2.1132 -22.6656 2.8393 -19.4369 -97.4869 -3.95171 178.791 34.2647 3.8147e-006 0.000518799 -55.0644 5.96665e-006 8.2699e-006 20.4429 -3.55271e-014 3.8147e-006 63.5993 -5.80044e-007 1.02674e-006 16.5673 -3.8147e-006 -3.8147e-006 -11.6949 10.504 1.8061 9.18782 6.94844 -1.92475e-006 89.5774 1.50133 -0.0661793 1.01907 3.64153e-014 -3.8147e-006 8.41974e-008 4.77512e-009 7.87619e-007 -21.4104 -0.667882 14.5641 -102.058 16.6983 -176.96 34.2647 2.4869e-014 -1.90735e-006 -45.3378 -1.58536e-006 1.41997e-005 20.4429 7.10543e-015 -1.90735e-006 59.6479 4.5556e-006 -1.01193e-005 16.5673 7.6294e-006 3.8147e-006 -20.237 0.373486 3.03415 9.18784 6.94841 5.71146e-006 89.5168 -1.72894 0.0743159 1.01906 -1.5099e-014 1.90735e-006 -179.96 -5.69559e-005 7.17942e-005 39.3331 -0.0246429 0.000213325 -5.34905 1.88914 4.43119 34.2801 -15.593 -4.04949e-005 -15.131 -12.3194 9.47682 -11.8323 -14.5899 -11.6366 -145.851 -56.193 120.409 17.444 7.6294e-006 0 20.5818 42.9417 -55.3285 30.6251 4.76838e-007 -5.72204e-006 -42.4814 6.9363e-006 8.64243e-006 31.2039 1.90735e-006 3.8147e-006 -165.535 79.1792 163.863 22.1039 0.255847 -0.379047 -7.4906 14.7075 -24.981 12.0552 -1.90735e-006 -5.72204e-006 179.96 -9.82568e-007 -2.55425e-005 -13.8251 -17.2335 0.298419 -170.786 25.0046 -94.6685 17.4439 -1.42109e-014 -7.62939e-006 61.4271 -63.2195 118.612 30.6251 3.8147e-006 1.42108e-014 -15.3104 -1.90599e-005 4.96123e-006 31.204 7.62941e-006 1.90735e-006 -143.618 -84.6933 -137.002 22.1039 0.255847 0.379035 -10.4084 -4.39771 34.6257 12.0552 -3.81471e-006 -6.39487e-014 1.22007e-007 1.02917e-005 -8.76957e-007 14.9375 -0.0103912 -0.000142336 12.7454 -4.87523 7.94632 14.3578 0.505501 -4.53329e-010 14.6819 -6.78192 17.0279 3.76995 -2.35629 12.3444 -168.87 26.032 -60.5603 3.76996 -2.35622 -12.3442 2.92803 22.5896 97.1521 11.8395 10.8646 8.62347e-007 -173.66 -4.62346 -176.839 9.73752 3.21677 3.22753e-007 -2.85749 -1.34445e-006 1.02321e-005 5.17481 0.535218 -0.1598 -9.7303 -3.51817e-006 1.10751e-005 6.93465 -0.751778 8.78245e-007 -70.1816 -40.4734 23.9167 13.0965 0 -2.38419e-007 -7.89266 -1.6355 -12.1212 25.6158 1.52588e-005 1.60583e-012 -6.60127e-008 2.49605e-008 2.39507e-008 
-43.0871 73.6119 -3.88234 90.0001 -84.848 -178.854 -7.62939e-006 0 7.10543e-015 -87.0462 8.21732 -81.4433 -18.6385 -9.591 -1.23266e-007 -56.1322 5.72198 156.868 20.9743 -7.62941e-006 -0.000677347 21.1821 -0.703107 -24.538 20.3015 1.52588e-005 -9.53676e-007 -14.1446 -5.88587 26.5661 21.6394 1.52588e-005 -1.90735e-006 -14.902 -4.58093 29.3638 21.8034 2.52015 3.31461 8.53387 -5.89462 -2.01985 -22.6373 2.83634 -19.4466 -97.5533 -3.92922 178.766 34.2647 3.8147e-006 0.000518799 -55.1556 5.9563e-006 8.27855e-006 20.4429 -1.42109e-014 3.8147e-006 63.6737 -5.80049e-007 1.03041e-006 16.5673 -3.8147e-006 -3.8147e-006 -11.7454 10.4817 1.79107 9.18782 6.94844 -1.92474e-006 89.5774 1.50133 -0.0661793 1.01907 3.86357e-014 -3.8147e-006 8.41974e-008 4.77512e-009 7.87619e-007 -21.4377 -0.675368 14.5562 -102.135 16.722 -176.973 34.2647 2.4869e-014 -1.90735e-006 -45.307 5.54228e-006 7.15808e-006 20.4429 -7.10543e-015 -1.90735e-006 59.5285 4.57771e-006 -1.01039e-005 16.5673 7.6294e-006 3.8147e-006 -20.2301 0.353385 3.04012 9.18784 6.94841 5.71126e-006 89.5168 -1.72894 0.0743159 1.01906 4.28546e-014 1.90735e-006 -179.96 -5.69559e-005 7.17942e-005 39.3331 -0.0246429 0.000213325 -5.2714 1.89738 4.45084 34.2801 -15.593 -4.04942e-005 -15.1453 -12.2793 9.63051 -11.7991 -14.6005 -11.6576 -145.674 -56.0923 120.604 17.444 7.6294e-006 -7.10543e-015 20.5361 42.9746 -55.241 30.6251 4.76838e-007 -5.72204e-006 -42.5773 5.94101e-007 1.55288e-005 31.2039 1.90735e-006 3.8147e-006 -165.048 79.203 163.438 22.1039 0.255847 -0.379047 -7.55306 14.6442 -25.0655 12.0552 -1.90735e-006 -5.72204e-006 179.96 -9.82565e-007 -2.55425e-005 -13.8237 -17.2354 0.27401 -170.832 25.0322 -94.5372 17.4439 -2.84217e-014 -7.62939e-006 61.6631 -63.1856 118.827 30.6251 3.8147e-006 1.77636e-014 -15.4279 -1.64078e-005 -4.73584e-006 31.204 7.62941e-006 1.90735e-006 -144.216 -84.7607 -137.694 22.1039 0.255847 0.379035 -10.4083 -4.39812 34.6237 12.0552 -3.81471e-006 -4.26325e-014 1.22007e-007 1.02917e-005 -8.76957e-007 14.9375 -0.0103912 -0.000142336 12.744 -4.88529 7.90222 14.3578 0.505501 -5.31871e-010 14.5591 -6.95701 16.8005 3.76995 -2.35629 12.3444 -168.73 26.168 -59.659 3.76996 -2.35622 -12.3442 2.93978 22.5404 97.3708 11.8395 10.8646 8.50076e-007 -170.917 -6.9506 -175.954 9.73752 3.21677 3.49458e-007 -2.85749 -1.23782e-006 1.02558e-005 5.17481 0.535218 -0.1598 -9.7303 -2.96683e-006 1.11373e-005 6.93465 -0.751778 8.72005e-007 -69.7556 -40.6373 20.6176 13.0965 0 -2.38419e-007 -7.89266 -1.6355 -12.1212 25.6158 1.52588e-005 1.55609e-012 -6.60127e-008 2.49605e-008 2.39507e-008 
